# xmcd
#
# Track frame offsets: 
#        150
#        13265
#        26400
#        39975
#        54380
#        68567
#        81197
#        95005
#        109410
#        123120
#        137010
#        150537
#        164310
#        177372
#        190590
#        203940
#        217147
#        231767
#        245232
#        257485
#        270915
#        284967
#        298512
#        312275
#        324052
#
# Disc length: 4510 seconds
#
# Revision: 0
# Processed by: cddbd v1.5.2PL0 Copyright (c) Steve Scherf et al.
# Submitted via: ExactAudioCopyFreeDBPlugin 1.0
#
DISCID=66119c19
DTITLE=Roosevelt Sykes - Complete Recorded Works, Vol. 6 (1939-1941)
DYEAR=1992
DGENRE=Blues
TTITLE0=Love Will Wear You Down
TTITLE1=Get Your Row Out (Then You Will Understand)
TTITLE2=Shoe Shiner's Moan
TTITLE3=Under Eyed Woman
TTITLE4=44 Blues
TTITLE5=Papa Low
TTITLE6=New Mistake in Life
TTITLE7=We Will Never Make the Grade
TTITLE8=I've Made a Change
TTITLE9=Concentration Blues
TTITLE10=New Style Blues
TTITLE11=Unlucky 13 Blues
TTITLE12=She's Got What It Takes
TTITLE13=Ups and Downs Blues
TTITLE14=Yellow Yam Blues
TTITLE15=Eight Ball Blues
TTITLE16=Pistol Shootin' Blues
TTITLE17=Take It with a Smile
TTITLE18=Right Now
TTITLE19=Knock Me Out
TTITLE20=Essie Mae Blues
TTITLE21=Essie Mae Blues
TTITLE22=She's in My Blood
TTITLE23=Doin' the Sally Long (Flames of Evaporation)
TTITLE24=47th Street Jive
EXTD=
EXTT0=
EXTT1=
EXTT2=
EXTT3=
EXTT4=
EXTT5=
EXTT6=
EXTT7=
EXTT8=
EXTT9=
EXTT10=
EXTT11=
EXTT12=
EXTT13=
EXTT14=
EXTT15=
EXTT16=
EXTT17=
EXTT18=
EXTT19=
EXTT20=
EXTT21=
EXTT22=
EXTT23=
EXTT24=
PLAYORDER=
